<?xml version="1.0" encoding="utf-8"?>
<svg xmlns="http://www.w3.org/2000/svg" version="1.1" viewBox="0 0 1400 340">
	<title>The titlepage for the Standard Ebooks edition of The Water-Babies, by Charles Kingsley</title>
	<g aria-label="THE WATER-BABIES">
		<path d="M200.93,68.25l0.00-15.44l54.27,0.00l0.00,15.44l-18.34,0.00l0.00,61.75l-17.59,0.00l0.00-61.75l-18.34,0.00z"/>
		<path d="M284.15,99.03l0.00,30.97l-17.59,0.00l0.00-77.19l17.59,0.00l0.00,30.78l24.89,0.00l0.00-30.78l17.59,0.00l0.00,77.19l-17.59,0.00l0.00-30.97l-24.89,0.00z"/>
		<path d="M387.03,52.81l0.00,15.44l-26.57,0.00l0.00,15.35l25.45,0.00l0.00,15.44l-25.45,0.00l0.00,15.53l26.57,0.00l0.00,15.44l-44.16,0.00l0.00-77.19l44.16,0.00z"/>
		<path d="M483.95,130.00l-12.35-43.32l-12.35,43.32l-19.56,0.00l-21.99-77.19l19.56,0.00l13.19,52.96l0.47,0.00l14.04-52.96l13.29,0.00l14.04,52.96l0.47,0.00l13.19-52.96l19.46,0.00l-21.99,77.19l-19.46,0.00z"/>
		<path d="M565.30,52.81l31.16,77.19l-18.90,0.00l-5.71-15.44l-29.38,0.00l-5.71,15.44l-18.90,0.00l31.16-77.19l16.28,0.00z  M565.86,99.12l-8.61-22.46l-0.19,0.00l-8.61,22.46l17.40,0.00z"/>
		<path d="M595.10,68.25l0.00-15.44l54.27,0.00l0.00,15.44l-18.34,0.00l0.00,61.75l-17.59,0.00l0.00-61.75l-18.34,0.00z"/>
		<path d="M704.89,52.81l0.00,15.44l-26.57,0.00l0.00,15.35l25.45,0.00l0.00,15.44l-25.45,0.00l0.00,15.53l26.57,0.00l0.00,15.44l-44.16,0.00l0.00-77.19l44.16,0.00z"/>
		<path d="M720.00,52.81l27.60,0.00c14.32,0.00,25.17,7.77,25.17,22.92c0.00,11.60-6.36,19.37-15.81,22.36l26.57,31.91l-22.36,0.00l-23.58-30.50l0.00,30.50l-17.59,0.00l0.00-77.19z  M737.59,87.05l2.06,0.00c6.64,0.00,14.60-0.47,14.60-10.11s-7.95-10.11-14.60-10.11l-2.06,0.00l0.00,20.21z"/>
		<path d="M791.99,95.75l30.13,0.00l0.00,14.32l-30.13,0.00l0.00-14.32z"/>
		<path d="M838.35,52.81l23.95,0.00c13.29,0.00,23.77,4.96,23.77,19.65c0.00,7.11-3.09,13.19-9.64,16.56c9.64,1.68,16.47,7.02,16.47,19.46c0.00,12.73-9.26,21.52-25.26,21.52l-29.29,0.00l0.00-77.19z  M855.94,83.03l1.40,0.00c7.58,0.00,11.70-2.34,11.70-8.80c0.00-5.52-4.02-7.86-11.70-7.86l-1.40,0.00l0.00,16.65z  M855.94,116.43l5.52,0.00c8.33,0.00,12.91-2.53,12.91-8.61c0.00-7.11-4.58-9.64-12.91-9.64l-5.52,0.00l0.00,18.25z"/>
		<path d="M943.00,52.81l31.16,77.19l-18.90,0.00l-5.71-15.44l-29.38,0.00l-5.71,15.44l-18.90,0.00l31.16-77.19l16.28,0.00z  M943.56,99.12l-8.61-22.46l-0.19,0.00l-8.61,22.46l17.40,0.00z"/>
		<path d="M982.15,52.81l23.95,0.00c13.29,0.00,23.77,4.96,23.77,19.65c0.00,7.11-3.09,13.19-9.64,16.56c9.64,1.68,16.47,7.02,16.47,19.46c0.00,12.73-9.26,21.52-25.26,21.52l-29.29,0.00l0.00-77.19z  M999.74,83.03l1.40,0.00c7.58,0.00,11.70-2.34,11.70-8.80c0.00-5.52-4.02-7.86-11.70-7.86l-1.40,0.00l0.00,16.65z  M999.74,116.43l5.52,0.00c8.33,0.00,12.91-2.53,12.91-8.61c0.00-7.11-4.58-9.64-12.91-9.64l-5.52,0.00l0.00,18.25z"/>
		<path d="M1067.06,52.81l0.00,77.19l-17.59,0.00l0.00-77.19l17.59,0.00z"/>
		<path d="M1127.45,52.81l0.00,15.44l-26.57,0.00l0.00,15.35l25.45,0.00l0.00,15.44l-25.45,0.00l0.00,15.53l26.57,0.00l0.00,15.44l-44.16,0.00l0.00-77.19l44.16,0.00z"/>
		<path d="M1171.00,51.40c14.04,0.00,23.95,7.30,23.95,7.30l-7.11,14.04s-7.67-5.33-15.63-5.33c-5.99,0.00-9.17,2.71-9.17,6.92c0.00,4.30,7.30,7.39,16.09,11.13c8.61,3.65,18.06,10.95,18.06,21.05c0.00,18.43-14.04,24.89-29.10,24.89c-18.06,0.00-29.01-10.20-29.01-10.20l8.80-14.78s10.29,8.70,18.90,8.70c3.84,0.00,11.13-0.37,11.13-7.58c0.00-5.61-8.23-8.14-17.40-12.73c-9.26-4.58-14.69-11.79-14.69-19.84c0.00-14.41,12.73-23.58,25.17-23.58z"/>
	</g>
	<g aria-label="CHARLES KINGSLEY">
		<path d="M333.03,278.07c6.74,0.00,11.37-3.58,11.37-3.58l5.61,11.23s-6.46,5.33-19.02,5.33c-16.35,0.00-31.37-13.33-31.37-29.89c0.00-16.63,14.95-30.11,31.37-30.11c12.56,0.00,19.02,5.33,19.02,5.33l-5.61,11.23s-4.63-3.58-11.37-3.58c-13.26,0.00-19.09,9.26-19.09,16.98c0.00,7.79,5.82,17.05,19.09,17.05z"/>
		<path d="M373.25,266.77l0.00,23.23l-13.19,0.00l0.00-57.89l13.19,0.00l0.00,23.09l18.67,0.00l0.00-23.09l13.19,0.00l0.00,57.89l-13.19,0.00l0.00-23.23l-18.67,0.00z"/>
		<path d="M447.94,232.11l23.37,57.89l-14.18,0.00l-4.28-11.58l-22.04,0.00l-4.28,11.58l-14.18,0.00l23.37-57.89l12.21,0.00z  M448.36,266.84l-6.46-16.84l-0.14,0.00l-6.46,16.84l13.05,0.00z"/>
		<path d="M478.55,232.11l20.70,0.00c10.74,0.00,18.88,5.82,18.88,17.19c0.00,8.70-4.77,14.53-11.86,16.77l19.93,23.93l-16.77,0.00l-17.68-22.88l0.00,22.88l-13.19,0.00l0.00-57.89z  M491.75,257.79l1.54,0.00c4.98,0.00,10.95-0.35,10.95-7.58s-5.96-7.58-10.95-7.58l-1.54,0.00l0.00,15.16z"/>
		<path d="M546.99,232.11l0.00,46.32l19.93,0.00l0.00,11.58l-33.12,0.00l0.00-57.89l13.19,0.00z"/>
		<path d="M611.57,232.11l0.00,11.58l-19.93,0.00l0.00,11.51l19.09,0.00l0.00,11.58l-19.09,0.00l0.00,11.65l19.93,0.00l0.00,11.58l-33.12,0.00l0.00-57.89l33.12,0.00z"/>
		<path d="M645.48,231.05c10.53,0.00,17.96,5.47,17.96,5.47l-5.33,10.53s-5.75-4.00-11.72-4.00c-4.49,0.00-6.88,2.04-6.88,5.19c0.00,3.23,5.47,5.54,12.07,8.35c6.46,2.74,13.54,8.21,13.54,15.79c0.00,13.82-10.53,18.67-21.82,18.67c-13.54,0.00-21.75-7.65-21.75-7.65l6.60-11.09s7.72,6.53,14.18,6.53c2.88,0.00,8.35-0.28,8.35-5.68c0.00-4.21-6.18-6.11-13.05-9.54c-6.95-3.44-11.02-8.84-11.02-14.88c0.00-10.81,9.54-17.68,18.88-17.68z"/>
		<path d="M753.17,290.00l-18.18,0.00l-21.33-24.56l0.00,24.56l-13.19,0.00l0.00-57.89l13.19,0.00l0.00,23.65l19.86-23.65l16.00,0.00l-23.30,27.44z"/>
		<path d="M773.89,232.11l0.00,57.89l-13.19,0.00l0.00-57.89l13.19,0.00z"/>
		<path d="M800.50,254.07l0.00,35.93l-13.19,0.00l0.00-57.89l13.19,0.00l23.02,35.93l0.14,0.00l0.00-35.93l13.19,0.00l0.00,57.89l-13.19,0.00l-23.02-35.93l-0.14,0.00z"/>
		<path d="M902.62,257.58l0.00,12.56c-3.16,14.67-15.37,20.91-26.74,20.91c-15.58,0.00-28.21-13.40-28.21-29.96c0.00-16.63,11.93-30.04,28.21-30.04c10.18,0.00,17.26,3.79,22.32,9.89l-8.63,9.47c-3.37-5.40-7.79-7.44-12.91-7.44c-8.14,0.00-14.74,8.07-14.74,18.11c0.00,9.82,6.60,17.82,14.74,17.82c6.32,0.00,12.56-4.07,12.56-11.16l-13.33,0.00l0.00-10.18l26.74,0.00z"/>
		<path d="M933.38,231.05c10.53,0.00,17.96,5.47,17.96,5.47l-5.33,10.53s-5.75-4.00-11.72-4.00c-4.49,0.00-6.88,2.04-6.88,5.19c0.00,3.23,5.47,5.54,12.07,8.35c6.46,2.74,13.54,8.21,13.54,15.79c0.00,13.82-10.53,18.67-21.82,18.67c-13.54,0.00-21.75-7.65-21.75-7.65l6.60-11.09s7.72,6.53,14.18,6.53c2.88,0.00,8.35-0.28,8.35-5.68c0.00-4.21-6.18-6.11-13.05-9.54c-6.95-3.44-11.02-8.84-11.02-14.88c0.00-10.81,9.54-17.68,18.88-17.68z"/>
		<path d="M977.39,232.11l0.00,46.32l19.93,0.00l0.00,11.58l-33.12,0.00l0.00-57.89l13.19,0.00z"/>
		<path d="M1041.97,232.11l0.00,11.58l-19.93,0.00l0.00,11.51l19.09,0.00l0.00,11.58l-19.09,0.00l0.00,11.65l19.93,0.00l0.00,11.58l-33.12,0.00l0.00-57.89l33.12,0.00z"/>
		<path d="M1048.24,232.11l15.86,0.00l12.07,18.53l12.07-18.53l15.86,0.00l-21.33,31.93l0.00,25.96l-13.19,0.00l0.00-25.96z"/>
	</g>
</svg>
